<svg xmlns:xlink="http://www.w3.org/1999/xlink" viewBox="949.1525423728814 13008.6 18508.474576271186 2673" style="max-height: 500px" version="1.1" xml:space="preserve" xmlns="http://www.w3.org/2000/svg" width="18508.474576271186" height="2673">
 <defs>
  <style type="text/css">
   
    .fil1 {fill:none}
    .fil0 {fill:#111111;fill-rule:nonzero}
   
  </style>
 </defs>
 <g id="Vrstva_x0020_1">
  <metadata id="CorelCorpID_0Corel-Layer"/>
  <g id="_665416240">
   <g id="_691083728">
    <polygon points="12561,13348 12561,13535 12081,13535 12081,15111 11851,15111 11851,13535 11368,13535 11368,13348" class="fil0"/>
    <path d="M12678 14413c0,-142 29,-266 86,-373 57,-107 136,-190 236,-249 100,-59 212,-89 335,-89 121,0 227,26 316,78 89,52 156,118 200,197l0 -253 233 0 0 1386 -233 0 0 -258c-46,81 -113,148 -204,201 -90,53 -195,80 -315,80 -123,0 -234,-30 -334,-91 -99,-61 -178,-146 -235,-255 -57,-110 -86,-234 -86,-374l1 0zm1174 3c0,-105 -21,-196 -63,-273 -42,-78 -99,-137 -171,-178 -72,-41 -150,-62 -236,-62 -86,0 -164,20 -235,61 -71,40 -127,99 -169,177 -42,78 -63,169 -63,273 0,106 21,199 63,277 42,78 99,138 169,180 71,41 149,62 235,62 86,0 165,-21 236,-62 72,-41 129,-101 171,-180 42,-78 63,-170 63,-274l0 -1z" class="fil0" id="_1"/>
    <path d="M14307 14415c0,-143 29,-269 86,-376 57,-107 137,-190 239,-249 102,-59 219,-89 350,-89 170,0 311,41 421,124 110,83 183,197 219,344l-248 0c-24,-84 -70,-151 -138,-200 -68,-49 -153,-73 -254,-73 -132,0 -238,45 -319,135 -81,90 -121,218 -121,383 0,167 40,296 121,387 81,91 187,137 319,137 101,0 185,-24 253,-71 67,-47 114,-115 139,-202l248 0c-37,142 -111,255 -223,340 -111,85 -250,128 -417,128 -132,0 -248,-30 -350,-89 -102,-59 -182,-142 -239,-250 -57,-108 -86,-234 -86,-379z" class="fil0" id="_2"/>
    <path d="M16128 13915l0 817c0,67 14,115 43,143 29,28 78,42 149,42l169 0 0 195 -207 0c-128,0 -224,-30 -288,-89 -64,-59 -96,-156 -96,-291l0 -817 -180 0 0 -190 180 0 0 -349 230 0 0 349 362 0 0 190 -362 0z" class="fil0" id="_3"/>
    <path d="M16806 13500c-44,0 -81,-15 -111,-46 -30,-30 -46,-67 -46,-111 0,-44 15,-81 46,-111 30,-30 67,-46 111,-46 42,0 78,15 107,46 30,30 44,67 44,111 0,44 -15,81 -44,111 -30,30 -65,46 -107,46zm111 225l0 1386 -230 0 0 -1386 230 0z" class="fil0" id="_4"/>
    <polygon points="17458,13239 17458,15111 17228,15111 17228,13239" class="fil0" id="_5"/>
    <path d="M18374 15134c-130,0 -247,-30 -353,-89 -105,-59 -188,-143 -248,-252 -60,-109 -90,-235 -90,-378 0,-142 31,-267 92,-376 62,-109 145,-192 252,-250 106,-58 225,-87 357,-87 132,0 250,29 357,87 106,58 190,141 252,249 62,108 92,234 92,377 0,143 -32,269 -95,378 -63,109 -149,193 -257,252 -108,59 -228,89 -359,89zm0 -202c83,0 160,-19 233,-58 73,-39 131,-97 176,-175 45,-78 67,-172 67,-283 0,-111 -22,-206 -66,-283 -44,-78 -101,-135 -172,-173 -71,-38 -148,-57 -230,-57 -84,0 -161,19 -231,57 -70,38 -126,96 -168,173 -42,78 -63,172 -63,283 0,113 21,208 62,286 41,78 97,135 166,173 69,38 145,57 228,57l-2 0z" class="fil0" id="_6"/>
    <path d="M2189 14337c0,106 -86,192 -192,192 -106,0 -192,-86 -192,-192 0,-106 86,-192 192,-192 106,0 192,86 192,192z" class="fil0"/>
    <path d="M2189 15028c0,106 -86,192 -192,192 -106,0 -192,-86 -192,-192 0,-106 86,-192 192,-192 106,0 192,86 192,192z" class="fil0"/>
    <path d="M2889 14337c0,106 -86,192 -192,192 -106,0 -192,-86 -192,-192 0,-106 86,-192 192,-192 106,0 192,86 192,192z" class="fil0"/>
    <path d="M2889 13615c0,106 -86,192 -192,192 -106,0 -192,-86 -192,-192 0,-106 86,-192 192,-192 106,0 192,86 192,192z" class="fil0"/>
    <path d="M5892 14337c0,106 -86,192 -192,192 -106,0 -192,-86 -192,-192 0,-106 86,-192 192,-192 106,0 192,86 192,192z" class="fil0"/>
    <path d="M5892 15028c0,106 -86,192 -192,192 -106,0 -192,-86 -192,-192 0,-106 86,-192 192,-192 106,0 192,86 192,192z" class="fil0"/>
    <path d="M6591 14337c0,106 -86,192 -192,192 -106,0 -192,-86 -192,-192 0,-106 86,-192 192,-192 106,0 192,86 192,192z" class="fil0"/>
    <path d="M6591 13615c0,106 -86,192 -192,192 -106,0 -192,-86 -192,-192 0,-106 86,-192 192,-192 106,0 192,86 192,192z" class="fil0"/>
    <path d="M7355 14337c0,106 -86,192 -192,192 -106,0 -192,-86 -192,-192 0,-106 86,-192 192,-192 106,0 192,86 192,192z" class="fil0"/>
    <path d="M8068 13615c0,106 -86,192 -192,192 -106,0 -192,-86 -192,-192 0,-106 86,-192 192,-192 106,0 192,86 192,192z" class="fil0"/>
    <path d="M8833 13615c0,106 -86,192 -192,192 -106,0 -192,-86 -192,-192 0,-106 86,-192 192,-192 106,0 192,86 192,192z" class="fil0"/>
    <path d="M9593 15028c0,106 -86,192 -192,192 -106,0 -192,-86 -192,-192 0,-106 86,-192 192,-192 106,0 192,86 192,192z" class="fil0"/>
    <path d="M9593 13621c0,106 -86,192 -192,192 -106,0 -192,-86 -192,-192 0,-106 86,-192 192,-192 106,0 192,86 192,192z" class="fil0"/>
    <path d="M10309 14337c0,106 -86,192 -192,192 -106,0 -192,-86 -192,-192 0,-106 86,-192 192,-192 106,0 192,86 192,192z" class="fil0"/>
    <path d="M8833 14337c0,106 -86,192 -192,192 -106,0 -192,-86 -192,-192 0,-106 86,-192 192,-192 106,0 192,86 192,192z" class="fil0"/>
    <path d="M8833 15028c0,106 -86,192 -192,192 -106,0 -192,-86 -192,-192 0,-106 86,-192 192,-192 106,0 192,86 192,192z" class="fil0"/>
    <path d="M3660 13606c0,106 -86,192 -192,192 -106,0 -192,-86 -192,-192 0,-106 86,-192 192,-192 106,0 192,86 192,192z" class="fil0"/>
    <path d="M4417 13621c0,106 -86,192 -192,192 -106,0 -192,-86 -192,-192 0,-106 86,-192 192,-192 106,0 192,86 192,192z" class="fil0"/>
    <path d="M5136 13621c0,106 -86,192 -192,192 -106,0 -192,-86 -192,-192 0,-106 86,-192 192,-192 106,0 192,86 192,192z" class="fil0"/>
   </g>
  </g>
  <rect height="3929" width="19287" y="12239" x="802" class="fil1"/>
 </g>
</svg>